<svg id="Layer_1" data-name="Layer 1" xmlns="http://www.w3.org/2000/svg" viewBox="0 0 645.45 261.86"><defs><style>.cls-1{fill:#ef3b24;}.cls-2{font-size:39px;font-family:MyriadPro-Regular, Myriad Pro;}.cls-3{letter-spacing:-0.01em;}.cls-4{letter-spacing:-0.01em;}.cls-5{letter-spacing:-0.01em;}.cls-6{letter-spacing:-0.01em;}.cls-7{letter-spacing:-0.01em;}</style></defs><path class="cls-1" d="M179,170.06a3.28,3.28,0,0,0-3.18,2.25c-.67,1.5-1,4.56-1,9.2,0,4.3.27,7.28.83,8.94a3.41,3.41,0,0,0,6.57,0q.85-2.49.87-9c0-4.47-.31-7.5-.91-9.08A3.27,3.27,0,0,0,179,170.06Z"/><path class="cls-1" d="M128.86,148a3.74,3.74,0,0,0,3.56-2.37q1.13-2.37,1.13-9.61t-1.1-9.57a3.84,3.84,0,0,0-7.11,0q-1.12,2.4-1.12,9.56c0,4.78.37,7.94,1.11,9.5A3.67,3.67,0,0,0,128.86,148Z"/><path class="cls-1" d="M88.34,176.48c0-4.51-1.53-6.77-4.57-6.77s-4.56,2.58-4.53,7.74H88.3C88.33,177,88.34,176.71,88.34,176.48Z"/><path class="cls-1" d="M217.76,123.43a2.89,2.89,0,0,0-2.81,1.94q-.85,1.93-.85,10.72c0,5.86.27,9.42.82,10.66a3,3,0,0,0,3.82,1.85,3,3,0,0,0,1.8-1.73c.56-1.24.85-4.83.85-10.78,0-5.38-.25-8.84-.73-10.36A2.88,2.88,0,0,0,217.76,123.43Z"/><path class="cls-1" d="M234.56,182.76l-3.57,4.9V199H221.2V164H231v13.52l9.85-13.53h8.9l-8.86,11.77,3.25,7.79a127.6,127.6,0,0,0,10.49-32.78q-2.82,3.66-8.48,3.67-6.54,0-9.21-4.73t-2.67-13.14q0-9.69,2.77-14.23t9.1-4.54q6.54,0,9.21,4.73a17.41,17.41,0,0,1,1.18,2.65A129.56,129.56,0,0,0,254.24,104H243v1.23c0,2,.27,3.34.81,4a2.58,2.58,0,0,0,2.14,1c1.88,0,2.95-1.26,3.19-3.8l5.54.35q-1.49,7.78-8.84,7.77a8.14,8.14,0,0,1-6.9-3.07,13,13,0,0,1-2.36-8.21c0-3.86.83-6.82,2.5-8.86a8.24,8.24,0,0,1,6.71-3.06,8.39,8.39,0,0,1,6.06,2.44,128.29,128.29,0,1,0-13.46,100.4ZM216,84h6.22v10.2a5.87,5.87,0,0,1,5.47-2.83,5.59,5.59,0,0,1,3.58,1,4.68,4.68,0,0,1,1.67,2.68,24.8,24.8,0,0,1,.36,4.71v14.3h-6.23V99.77a7,7,0,0,0-.41-2.91,1.8,1.8,0,0,0-1.69-.72,2.89,2.89,0,0,0-2,.69q-.75.69-.75,3.12v14.14H216ZM200.57,91.8H203V85l6-.19v7h4.1v4.9H209v8.19a24.17,24.17,0,0,0,.1,3,1.7,1.7,0,0,0,.66,1.13,2.92,2.92,0,0,0,1.89.45h1.77v4.73a17.47,17.47,0,0,1-3.8.46,7.3,7.3,0,0,1-4.33-1.08,4.69,4.69,0,0,1-1.92-2.71,22.61,22.61,0,0,1-.42-5.19V96.72h-2.47ZM183,148.05h6v-21a22.35,22.35,0,0,1-6,4.45v-7a23.19,23.19,0,0,0,7.84-6.56h6V148h5.89v5.81H183Zm-36-29.74h8.67l9.12,22.06V118.3h6v35.55h-7l-10.83-25.73v25.73h-6Zm-18.07-.55q6.3,0,9.61,4.58t3.31,13.73q0,18.33-12.89,18.33-6.42,0-9.66-4.67T116,136.07q0-18.3,12.86-18.31Zm-26.15.55h7.81v35.55h-7.81Zm-41.17,0h7.81v35.55H61.54Zm-21,0L46,145.37l5.65-27.1h6.7L49.59,154l-8.75-.18L32.3,118.27ZM63.89,199H54.07V176c0-2.36-.31-3.81-.91-4.37a3.5,3.5,0,0,0-2.43-.83c-1.76,0-2.92.54-3.47,1.62s-.83,3.08-.83,6V199h-9.8V164H45.9v4.79q2.43-5.49,8.79-5.49a9.77,9.77,0,0,1,5.68,1.55,6.87,6.87,0,0,1,2.86,3.94,31.9,31.9,0,0,1,.63,7.29Zm16.56-7.65A4,4,0,0,0,83.8,193c3,0,4.64-2,5-6l8.72.55q-2.33,12.23-13.91,12.22-7.15,0-10.86-4.83T69,182Q69,172.86,73,168a12.93,12.93,0,0,1,10.56-4.81,13.17,13.17,0,0,1,10,4.25q4,4.26,4,15.61H79.17V185C79.17,188.19,79.59,190.3,80.45,191.37Zm14-40.14q-3.4,3.15-9.16,3.14-9.66,0-12.34-9.77l6.82-2Q81,148,85.47,148a5,5,0,0,0,3.29-1.05A3.46,3.46,0,0,0,90,144.14a3.5,3.5,0,0,0-.88-2.33,10.72,10.72,0,0,0-4.06-2.17A36.15,36.15,0,0,1,79,137a9.25,9.25,0,0,1-3.31-3.38,9.61,9.61,0,0,1-1.3-5,10.54,10.54,0,0,1,3.09-7.85,11.1,11.1,0,0,1,8.16-3.06q9.27,0,11.57,8.28l-6.46,2.47c-.92-2.93-2.61-4.4-5-4.4a3.77,3.77,0,0,0-2.72,1,3.07,3.07,0,0,0-1,2.28,2.83,2.83,0,0,0,1.19,2.41,22.87,22.87,0,0,0,5,2.36,29.85,29.85,0,0,1,5.4,2.53,9.51,9.51,0,0,1,3.18,3.4A10.16,10.16,0,0,1,98,143a10.67,10.67,0,0,1-3.5,8.17ZM120.12,199a27,27,0,0,1-6,.73c-3,0-5.23-.56-6.8-1.7a7.38,7.38,0,0,1-3-4.27,35.42,35.42,0,0,1-.66-8.16v-14H99.77v-7.71h3.89v-5.36h9.51v5.37h6.46v7.71h-6.46v12.88a37.81,37.81,0,0,0,.16,4.64,2.71,2.71,0,0,0,1,1.77,4.78,4.78,0,0,0,3,.71c.74,0,1.67,0,2.78-.07Zm35.47,0h-8.14l-4.51-23.86L138.45,199h-8L121.63,164h9.52l4.12,21.35L139.2,164h9.51l3.19,21.33L156.63,164h7.66Zm23.42.73q-14.25,0-14.25-18.26T179,163.28q14.22,0,14.22,18.23T179,199.75Zm38.53-26.53a14.94,14.94,0,0,0-1.63-.14q-7.16,0-7.15,10.83V199H199V164h8.61v8.47q2.32-8.91,8.3-8.92a10.51,10.51,0,0,1,1.67.17Zm.19-18.82q-6.54,0-9.21-4.73t-2.67-13.14q0-9.69,2.77-14.23t9.1-4.54q6.54,0,9.21,4.73t2.67,13.16q0,9.65-2.77,14.19t-9.09,4.51Z"/><path class="cls-1" d="M243.05,100.37h5.76v-.62q0-4.31-2.9-4.3T243.05,100.37Z"/><path class="cls-1" d="M246.16,123.43a2.89,2.89,0,0,0-2.81,1.94q-.85,1.93-.85,10.72c0,5.86.27,9.42.82,10.66a3,3,0,0,0,3.82,1.85,3,3,0,0,0,1.8-1.73c.56-1.24.85-4.83.85-10.78,0-5.38-.25-8.84-.73-10.36A2.88,2.88,0,0,0,246.16,123.43Z"/><text class="cls-2"><tspan x="284.49" y="98.35">Challenge </tspan><tspan class="cls-3" x="456.75" y="98.35">C</tspan><tspan x="478.94" y="98.35">on</tspan><tspan class="cls-4" x="522" y="98.35">f</tspan><tspan x="532.88" y="98.35">e</tspan><tspan class="cls-5" x="552.42" y="98.35">r</tspan><tspan x="564.78" y="98.35">en</tspan><tspan class="cls-6" x="605.97" y="98.35">c</tspan><tspan x="623.2" y="98.35">e</tspan><tspan x="312.81" y="191.95">9 - 10 </tspan><tspan class="cls-7" x="409.6" y="191.95">A</tspan><tspan x="433" y="191.95">ugust 2024</tspan></text></svg>