<svg id="Layer_1" data-name="Layer 1" xmlns="http://www.w3.org/2000/svg" viewBox="0 0 576.82 256.63"><defs><style>.cls-1{fill:#ef3b24;}</style></defs><title>Challenge Nav Logo 2021</title><g id="Layer_2" data-name="Layer 2"><g id="Layer_1-2" data-name="Layer 1-2"><path class="cls-1" d="M179,170a3.28,3.28,0,0,0-3.18,2.25q-1,2.24-1,9.2,0,6.44.83,8.94a3.41,3.41,0,0,0,6.57,0q.86-2.49.87-9,0-6.71-.91-9.08A3.25,3.25,0,0,0,179,170Z" transform="translate(0.02 0.12)"/><path class="cls-1" d="M128.82,148a3.73,3.73,0,0,0,3.56-2.37q1.13-2.37,1.13-9.61t-1.12-9.57a3.84,3.84,0,0,0-7.11,0q-1.12,2.4-1.12,9.56t1.11,9.5A3.7,3.7,0,0,0,128.82,148Z" transform="translate(0.02 0.12)"/><path class="cls-1" d="M88.29,176.41q0-6.77-4.57-6.77t-4.53,7.74h9.06C88.28,177,88.29,176.64,88.29,176.41Z" transform="translate(0.02 0.12)"/><path class="cls-1" d="M217.71,123.36a2.9,2.9,0,0,0-2.81,1.93q-.9,1.93-.9,10.71t.82,10.66a3,3,0,0,0,5.62.12q.85-1.86.85-10.78,0-8.08-.73-10.36A2.87,2.87,0,0,0,217.71,123.36Z" transform="translate(0.02 0.12)"/><path class="cls-1" d="M234.51,182.69l-3.57,4.9v11.35h-9.79V163.88h9.79V177.4l9.85-13.53h8.9l-8.86,11.77,3.25,7.79a127.34,127.34,0,0,0,10.49-32.78q-2.82,3.66-8.48,3.67-6.54,0-9.21-4.73t-2.67-13.14q0-9.69,2.77-14.23t9.1-4.54q6.54,0,9.21,4.73a16.45,16.45,0,0,1,1.18,2.65,128.84,128.84,0,0,0-2.28-21.15H243v1.23q0,3,.81,4a2.61,2.61,0,0,0,2.14,1q2.83,0,3.19-3.8l5.54.35q-1.48,7.78-8.84,7.77a8.17,8.17,0,0,1-6.9-3.07,13.12,13.12,0,0,1-2.36-8.21q0-5.8,2.5-8.86a8.82,8.82,0,0,1,12.77-.62,128.28,128.28,0,1,0-13.5,100.4Zm-18.58-98.8h6.22v10.2a5.88,5.88,0,0,1,5.47-2.83,5.52,5.52,0,0,1,3.58,1.06A4.58,4.58,0,0,1,232.88,95a23.52,23.52,0,0,1,.36,4.71V114H227V99.7a6.78,6.78,0,0,0-.41-2.91,1.78,1.78,0,0,0-1.69-.72,2.87,2.87,0,0,0-2,.69q-.75.69-.75,3.12V114h-6.22Zm-15.41,7.83H203V84.88l6-.19v7h4.1v4.9H209v8.19a26.64,26.64,0,0,0,.1,2.95,1.75,1.75,0,0,0,.66,1.13,3,3,0,0,0,1.89.45h1.77V114a17.48,17.48,0,0,1-3.8.46,7.34,7.34,0,0,1-4.33-1.08,4.76,4.76,0,0,1-1.92-2.71,23,23,0,0,1-.42-5.19V96.62h-2.47ZM182.92,148h6V127a22.23,22.23,0,0,1-6,4.45v-7a23.18,23.18,0,0,0,7.84-6.56h6V148h5.89v5.81H182.92Zm-36-29.74h8.67l9.14,22.09V118.23h6v35.55h-7L152.9,128.05v25.73h-6Zm-18.07-.55q6.3,0,9.61,4.58T141.73,136q0,18.33-12.89,18.33-6.41,0-9.66-4.67T115.92,136q0-18.32,12.9-18.31Zm-26.15.55h7.81v35.55H102.7Zm-41.17,0h7.81v35.55H61.5Zm-21,0,5.46,27.1,5.65-27.1h6.7L49.54,154l-8.75-.18-8.54-35.55ZM63.85,199H54V176q0-3.54-.91-4.37a3.44,3.44,0,0,0-2.43-.83q-2.64,0-3.47,1.62t-.83,6V199H36.59v-35.1h9.27v4.79q2.43-5.49,8.79-5.49a9.77,9.77,0,0,1,5.68,1.54,6.79,6.79,0,0,1,2.86,3.94,31.16,31.16,0,0,1,.63,7.29Zm16.59-7.67a4.09,4.09,0,0,0,3.35,1.59q4.47,0,5-6l8.72.55q-2.32,12.22-13.91,12.22-7.15,0-10.86-4.83T69,181.93q0-9.13,4-13.93a12.94,12.94,0,0,1,10.56-4.81,13.13,13.13,0,0,1,10,4.25q4,4.26,4,15.61H79.13V185q0,4.69,1.28,6.28Zm14-40.14q-3.42,3.19-9.18,3.19-9.66,0-12.34-9.77l6.82-2Q81,148,85.43,148a5,5,0,0,0,3.29-1.05,3.44,3.44,0,0,0,1.28-2.8,3.49,3.49,0,0,0-.88-2.33A10.49,10.49,0,0,0,85,139.64,37.19,37.19,0,0,1,78.94,137a9.4,9.4,0,0,1-3.31-3.38,9.66,9.66,0,0,1-1.3-5,10.59,10.59,0,0,1,3.08-7.85,11.08,11.08,0,0,1,8.16-3.06q9.27,0,11.57,8.28l-6.46,2.47q-1.38-4.4-5.05-4.4a3.74,3.74,0,0,0-2.72,1,3.08,3.08,0,0,0-1,2.28,2.86,2.86,0,0,0,1.19,2.41,23.54,23.54,0,0,0,5,2.36,29.35,29.35,0,0,1,5.4,2.53,9.43,9.43,0,0,1,3.18,3.4,10,10,0,0,1,1.21,5,10.66,10.66,0,0,1-3.46,8.1ZM120.11,199a27.58,27.58,0,0,1-6,.73q-4.44,0-6.8-1.7a7.45,7.45,0,0,1-3-4.27,36,36,0,0,1-.66-8.16v-14h-3.9v-7.71h3.89V158.5h9.51v5.37h6.46v7.71h-6.46v12.88a41.25,41.25,0,0,0,.16,4.64,2.72,2.72,0,0,0,1,1.77,4.8,4.8,0,0,0,3,.71c.74,0,1.67,0,2.78-.07Zm35.47,0h-8.19l-4.51-23.86L138.47,199h-8l-8.82-35.07h9.52l4.12,21.35,3.93-21.35h9.51l3.19,21.33,4.73-21.33h7.66Zm23.42.73q-14.25,0-14.25-18.26T179,163.18q14.22,0,14.22,18.23T179,199.68Zm38.53-26.53a14,14,0,0,0-1.63-.14q-7.15,0-7.15,10.83V199H199V163.88h8.61v8.47q2.33-8.92,8.3-8.92a9.33,9.33,0,0,1,1.67.17Zm.19-18.82q-6.54,0-9.21-4.73t-2.67-13.14q0-9.69,2.77-14.23t9.1-4.54q6.54,0,9.21,4.73t2.67,13.16q0,9.64-2.77,14.19t-9.12,4.54Z" transform="translate(0.02 0.12)"/><path class="cls-1" d="M243,100.31h5.76v-.62q0-4.31-2.9-4.3T243,100.31Z" transform="translate(0.02 0.12)"/><path class="cls-1" d="M246.11,123.36a2.9,2.9,0,0,0-2.81,1.93q-.85,1.93-.85,10.72t.82,10.66a3,3,0,0,0,5.62.12q.85-1.86.85-10.78,0-8.08-.73-10.36A2.87,2.87,0,0,0,246.11,123.36Z" transform="translate(0.02 0.12)"/></g></g><path d="M269.9,43.54h-.06l-3.62,2-.54-2.14,4.54-2.43h2.4v20.8H269.9Z" transform="translate(0.02 0.12)"/><path d="M280.87,58.49a9.41,9.41,0,0,0,4.61,1.31c3.62,0,4.74-2.3,4.7-4,0-2.91-2.66-4.16-5.38-4.16h-1.57V49.5h1.57c2,0,4.64-1.06,4.64-3.52,0-1.66-1.06-3.14-3.65-3.14a7.64,7.64,0,0,0-4.16,1.38l-.74-2a9.89,9.89,0,0,1,5.44-1.6c4.1,0,6,2.43,6,5,0,2.14-1.28,4-3.84,4.9v.06a5.42,5.42,0,0,1,4.64,5.34c0,3.33-2.59,6.24-7.58,6.24a10.57,10.57,0,0,1-5.41-1.41Z" transform="translate(0.02 0.12)"/><path d="M300.9,41.79v4.45h4v2.14h-4v8.35c0,1.92.54,3,2.11,3a6.29,6.29,0,0,0,1.63-.19l.13,2.11a6.88,6.88,0,0,1-2.5.38,3.9,3.9,0,0,1-3-1.18c-.8-.83-1.09-2.21-1.09-4V48.38h-2.4V46.23h2.4V42.52Z" transform="translate(0.02 0.12)"/><path d="M308.1,39h2.82v9.66H311a5.23,5.23,0,0,1,2-2,5.8,5.8,0,0,1,2.88-.8c2.08,0,5.41,1.28,5.41,6.62v9.22h-2.82v-8.9c0-2.5-.93-4.61-3.58-4.61A4,4,0,0,0,311.11,51a3.4,3.4,0,0,0-.19,1.34v9.34H308.1Z" transform="translate(0.02 0.12)"/><path d="M339.18,52V54.1h-7.9V52Z" transform="translate(0.02 0.12)"/><path d="M354.47,43.54h-.06l-3.62,2-.54-2.14,4.54-2.43h2.4v20.8h-2.72Z" transform="translate(0.02 0.12)"/><path d="M373.48,61.72V56.06h-9.66V54.2l9.28-13.28h3V53.85H379v2.21h-2.91v5.66Zm0-7.87V46.9q0-1.63.1-3.26h-.1c-.64,1.22-1.15,2.11-1.73,3.07l-5.09,7.07v.06Z" transform="translate(0.02 0.12)"/><path d="M385.48,41.79v4.45h4v2.14h-4v8.35c0,1.92.54,3,2.11,3a6.28,6.28,0,0,0,1.63-.19l.13,2.11a6.89,6.89,0,0,1-2.5.38,3.9,3.9,0,0,1-3-1.18c-.8-.83-1.09-2.21-1.09-4V48.38h-2.4V46.23h2.4V42.52Z" transform="translate(0.02 0.12)"/><path d="M392.68,39h2.82v9.66h.06a5.23,5.23,0,0,1,2-2,5.8,5.8,0,0,1,2.88-.8c2.08,0,5.41,1.28,5.41,6.62v9.22H403v-8.9c0-2.5-.93-4.61-3.58-4.61A4,4,0,0,0,395.69,51a3.4,3.4,0,0,0-.19,1.34v9.34h-2.82Z" transform="translate(0.02 0.12)"/><path d="M420.81,54.94l-2.24,6.78h-2.88L423,40.15h3.36l7.36,21.57h-3l-2.3-6.78Zm7.07-2.18-2.11-6.21c-.48-1.41-.8-2.69-1.12-3.94h-.06c-.32,1.28-.67,2.59-1.09,3.9l-2.11,6.24Z" transform="translate(0.02 0.12)"/><path d="M449.38,57.5c0,1.6,0,3,.13,4.22H447l-.16-2.53h-.06a5.83,5.83,0,0,1-5.12,2.88c-2.43,0-5.34-1.34-5.34-6.78V46.23h2.82v8.58c0,2.94.9,4.93,3.46,4.93a4.07,4.07,0,0,0,3.71-2.56,4.12,4.12,0,0,0,.26-1.44v-9.5h2.82Z" transform="translate(0.02 0.12)"/><path d="M467.4,46.23c-.06,1.12-.13,2.37-.13,4.26v9c0,3.55-.7,5.73-2.21,7.07a8.21,8.21,0,0,1-5.63,1.86,10,10,0,0,1-5.15-1.28L455,65a8.73,8.73,0,0,0,4.54,1.22c2.88,0,5-1.5,5-5.41V59.06h-.06a5.53,5.53,0,0,1-4.93,2.59c-3.84,0-6.59-3.26-6.59-7.55,0-5.25,3.42-8.22,7-8.22a5.15,5.15,0,0,1,4.83,2.69h.06l.13-2.34Zm-2.91,6.11a4,4,0,0,0-.16-1.28,4.06,4.06,0,0,0-3.94-3c-2.69,0-4.61,2.27-4.61,5.86,0,3,1.54,5.57,4.58,5.57a4.12,4.12,0,0,0,3.9-2.88,4.89,4.89,0,0,0,.22-1.5Z" transform="translate(0.02 0.12)"/><path d="M484.9,57.5c0,1.6,0,3,.13,4.22h-2.5l-.16-2.53h-.06a5.83,5.83,0,0,1-5.12,2.88c-2.43,0-5.34-1.34-5.34-6.78V46.23h2.82v8.58c0,2.94.9,4.93,3.46,4.93a4.07,4.07,0,0,0,3.71-2.56,4.12,4.12,0,0,0,.26-1.44v-9.5h2.82Z" transform="translate(0.02 0.12)"/><path d="M489.19,58.84A7.38,7.38,0,0,0,492.9,60c2,0,3-1,3-2.3s-.8-2.08-2.88-2.85c-2.78-1-4.1-2.53-4.1-4.38,0-2.5,2-4.54,5.34-4.54a7.73,7.73,0,0,1,3.81,1l-.7,2a6,6,0,0,0-3.17-.9c-1.66,0-2.59,1-2.59,2.11s.93,1.86,2.94,2.62c2.69,1,4.06,2.37,4.06,4.67,0,2.72-2.11,4.64-5.79,4.64A8.83,8.83,0,0,1,488.49,61Z" transform="translate(0.02 0.12)"/><path d="M505.64,41.79v4.45h4v2.14h-4v8.35c0,1.92.54,3,2.11,3a6.28,6.28,0,0,0,1.63-.19l.13,2.11A6.89,6.89,0,0,1,507,62a3.9,3.9,0,0,1-3-1.18c-.8-.83-1.09-2.21-1.09-4V48.38h-2.4V46.23h2.4V42.52Z" transform="translate(0.02 0.12)"/><path d="M518.73,61.72V60l2.21-2.14c5.31-5.06,7.71-7.74,7.74-10.88,0-2.11-1-4.06-4.13-4.06a7.09,7.09,0,0,0-4.42,1.76l-.9-2a9.12,9.12,0,0,1,5.89-2.11c4.48,0,6.37,3.07,6.37,6,0,3.84-2.78,6.94-7.17,11.17l-1.66,1.54v.06H532v2.34Z" transform="translate(0.02 0.12)"/><path d="M549,51.1c0,7.07-2.62,11-7.23,11-4.06,0-6.82-3.81-6.88-10.69s3-10.81,7.23-10.81C546.47,40.57,549,44.47,549,51.1Zm-11.29.32c0,5.41,1.66,8.48,4.22,8.48,2.88,0,4.26-3.36,4.26-8.67,0-5.12-1.31-8.48-4.22-8.48C539.46,42.75,537.67,45.75,537.67,51.42Z" transform="translate(0.02 0.12)"/><path d="M551.56,61.72V60l2.21-2.14c5.31-5.06,7.71-7.74,7.74-10.88,0-2.11-1-4.06-4.13-4.06A7.09,7.09,0,0,0,553,44.67l-.9-2A9.12,9.12,0,0,1,558,40.57c4.48,0,6.37,3.07,6.37,6,0,3.84-2.78,6.94-7.17,11.17l-1.66,1.54v.06h9.34v2.34Z" transform="translate(0.02 0.12)"/><path d="M574.09,43.54H574l-3.62,2-.54-2.14,4.54-2.43h2.4v20.8h-2.72Z" transform="translate(0.02 0.12)"/><path d="M295.48,138.52,290,117H293l2.56,10.91c.64,2.69,1.22,5.38,1.6,7.46h.06c.35-2.14,1-4.7,1.76-7.49L301.82,117h2.91l2.62,10.94c.61,2.56,1.18,5.12,1.5,7.39h.06c.45-2.37,1.06-4.77,1.73-7.45L313.49,117h2.85l-6.11,21.57h-2.91l-2.72-11.23a65,65,0,0,1-1.41-7h-.06a67.27,67.27,0,0,1-1.66,7l-3.07,11.23Z" transform="translate(0.02 0.12)"/><path d="M319.45,131.29c.06,3.81,2.5,5.38,5.31,5.38a10.17,10.17,0,0,0,4.29-.8l.48,2a12.52,12.52,0,0,1-5.15,1c-4.77,0-7.62-3.14-7.62-7.81s2.75-8.35,7.26-8.35c5.06,0,6.4,4.45,6.4,7.3a10.77,10.77,0,0,1-.1,1.31Zm8.26-2c0-1.79-.74-4.58-3.9-4.58-2.85,0-4.1,2.62-4.32,4.58Z" transform="translate(0.02 0.12)"/><path d="M333.91,115.8h2.82v22.72h-2.82Z" transform="translate(0.02 0.12)"/><path d="M341.46,115.8h2.82v22.72h-2.82Z" transform="translate(0.02 0.12)"/><path d="M348.63,135.64a7.38,7.38,0,0,0,3.71,1.12c2,0,3-1,3-2.3s-.8-2.08-2.88-2.85c-2.78-1-4.1-2.53-4.1-4.38,0-2.5,2-4.54,5.34-4.54a7.73,7.73,0,0,1,3.81,1l-.7,2a6,6,0,0,0-3.17-.9c-1.66,0-2.59,1-2.59,2.11s.93,1.86,2.94,2.62c2.69,1,4.06,2.37,4.06,4.67,0,2.72-2.11,4.64-5.79,4.64a8.82,8.82,0,0,1-4.35-1.06Z" transform="translate(0.02 0.12)"/><path d="M361.69,128.09c0-2-.06-3.58-.13-5.06h2.53l.13,2.66h.06a6.09,6.09,0,0,1,5.5-3c3.74,0,6.56,3.17,6.56,7.87,0,5.57-3.39,8.32-7,8.32a5.43,5.43,0,0,1-4.77-2.43h-.06v8.42h-2.78Zm2.78,4.13a6.29,6.29,0,0,0,.13,1.15,4.34,4.34,0,0,0,4.22,3.3c3,0,4.7-2.43,4.7-6,0-3.1-1.63-5.76-4.61-5.76a4.49,4.49,0,0,0-4.26,3.49,4.57,4.57,0,0,0-.19,1.15Z" transform="translate(0.02 0.12)"/><path d="M379.89,127.86c0-1.82,0-3.39-.13-4.83h2.46l.1,3h.13a4.65,4.65,0,0,1,4.29-3.39,3,3,0,0,1,.8.1v2.66a4.23,4.23,0,0,0-1-.1c-2,0-3.39,1.5-3.78,3.62a7.88,7.88,0,0,0-.13,1.31v8.26h-2.78Z" transform="translate(0.02 0.12)"/><path d="M393.62,118.68a1.74,1.74,0,0,1-3.49,0,1.72,1.72,0,0,1,1.76-1.76A1.67,1.67,0,0,1,393.62,118.68Zm-3.14,19.84V123h2.82v15.49Z" transform="translate(0.02 0.12)"/><path d="M398,127.22c0-1.6,0-2.91-.13-4.19h2.5l.16,2.56h.06a5.69,5.69,0,0,1,5.12-2.91c2.14,0,5.47,1.28,5.47,6.59v9.25h-2.82v-8.93c0-2.5-.93-4.58-3.58-4.58A4,4,0,0,0,401,127.9a4,4,0,0,0-.19,1.31v9.31H398Z" transform="translate(0.02 0.12)"/><path d="M429.08,123c-.06,1.12-.13,2.37-.13,4.26v9c0,3.55-.7,5.73-2.21,7.07a8.21,8.21,0,0,1-5.63,1.86,10,10,0,0,1-5.15-1.28l.7-2.14A8.74,8.74,0,0,0,421.2,143c2.88,0,5-1.5,5-5.41v-1.73h-.06a5.53,5.53,0,0,1-4.93,2.59c-3.84,0-6.59-3.26-6.59-7.55,0-5.25,3.42-8.22,7-8.22a5.15,5.15,0,0,1,4.83,2.69h.06l.13-2.34Zm-2.91,6.11a4,4,0,0,0-.16-1.28,4.06,4.06,0,0,0-3.94-3c-2.69,0-4.61,2.27-4.61,5.86,0,3,1.54,5.57,4.58,5.57a4.12,4.12,0,0,0,3.9-2.88,4.89,4.89,0,0,0,.22-1.5Z" transform="translate(0.02 0.12)"/><path d="M444,131.74l-2.24,6.78h-2.88L446.2,117h3.36l7.36,21.57h-3l-2.3-6.78Zm7.07-2.18-2.11-6.21c-.48-1.41-.8-2.69-1.12-3.94h-.06c-.32,1.28-.67,2.59-1.09,3.9l-2.11,6.24Z" transform="translate(0.02 0.12)"/><path d="M459.89,127.22c0-1.6,0-2.91-.13-4.19h2.5l.16,2.56h.06a5.69,5.69,0,0,1,5.12-2.91c2.14,0,5.47,1.28,5.47,6.59v9.25h-2.82v-8.93c0-2.5-.93-4.58-3.58-4.58a4,4,0,0,0-3.78,2.88,4,4,0,0,0-.19,1.31v9.31h-2.82Z" transform="translate(0.02 0.12)"/><path d="M491,123c-.06,1.12-.13,2.37-.13,4.26v9c0,3.55-.7,5.73-2.21,7.07a8.21,8.21,0,0,1-5.63,1.86,10,10,0,0,1-5.15-1.28l.7-2.14a8.74,8.74,0,0,0,4.54,1.22c2.88,0,5-1.5,5-5.41v-1.73h-.06a5.53,5.53,0,0,1-4.93,2.59c-3.84,0-6.59-3.26-6.59-7.55,0-5.25,3.42-8.22,7-8.22a5.15,5.15,0,0,1,4.83,2.69h.06l.13-2.34Zm-2.91,6.11a4,4,0,0,0-.16-1.28,4.06,4.06,0,0,0-3.94-3c-2.69,0-4.61,2.27-4.61,5.86,0,3,1.54,5.57,4.58,5.57a4.12,4.12,0,0,0,3.9-2.88,4.89,4.89,0,0,0,.22-1.5Z" transform="translate(0.02 0.12)"/><path d="M495.54,115.8h2.82v22.72h-2.82Z" transform="translate(0.02 0.12)"/><path d="M506.23,118.68a1.74,1.74,0,0,1-3.49,0,1.72,1.72,0,0,1,1.76-1.76A1.67,1.67,0,0,1,506.23,118.68Zm-3.14,19.84V123h2.82v15.49Z" transform="translate(0.02 0.12)"/><path d="M521.62,137.94a10.36,10.36,0,0,1-4.45.9c-4.67,0-7.71-3.17-7.71-7.9s3.26-8.22,8.32-8.22a9.41,9.41,0,0,1,3.9.8l-.64,2.18a6.53,6.53,0,0,0-3.26-.74c-3.55,0-5.47,2.62-5.47,5.86,0,3.58,2.3,5.79,5.38,5.79a8,8,0,0,0,3.46-.77Z" transform="translate(0.02 0.12)"/><path d="M533.49,138.52l-.22-2h-.1a5.77,5.77,0,0,1-4.74,2.3,4.41,4.41,0,0,1-4.74-4.45c0-3.74,3.33-5.79,9.31-5.76v-.32c0-1.28-.35-3.58-3.52-3.58a7.71,7.71,0,0,0-4,1.15l-.64-1.86a9.61,9.61,0,0,1,5.09-1.38c4.74,0,5.89,3.23,5.89,6.33v5.79a21.87,21.87,0,0,0,.26,3.71Zm-.42-7.9c-3.07-.06-6.56.48-6.56,3.49a2.49,2.49,0,0,0,2.66,2.69,3.85,3.85,0,0,0,3.74-2.59,2.91,2.91,0,0,0,.16-.9Z" transform="translate(0.02 0.12)"/><path d="M540.34,127.22c0-1.6,0-2.91-.13-4.19h2.5l.16,2.56h.06a5.69,5.69,0,0,1,5.12-2.91c2.14,0,5.47,1.28,5.47,6.59v9.25h-2.82v-8.93c0-2.5-.93-4.58-3.58-4.58a4,4,0,0,0-3.78,2.88,4,4,0,0,0-.19,1.31v9.31h-2.82Z" transform="translate(0.02 0.12)"/><path d="M356.42,213.13a9.87,9.87,0,0,0,5,1.41c2.85,0,4.51-1.5,4.51-3.68,0-2-1.15-3.17-4.06-4.29-3.52-1.25-5.7-3.07-5.7-6.11,0-3.36,2.78-5.86,7-5.86a9.8,9.8,0,0,1,4.77,1.06l-.77,2.27a8.59,8.59,0,0,0-4.1-1c-2.94,0-4.06,1.76-4.06,3.23,0,2,1.31,3,4.29,4.16,3.65,1.41,5.5,3.17,5.5,6.33,0,3.33-2.46,6.21-7.55,6.21a11.15,11.15,0,0,1-5.5-1.38Z" transform="translate(0.02 0.12)"/><path d="M381.16,216.52l-.22-2h-.1a5.77,5.77,0,0,1-4.74,2.3,4.41,4.41,0,0,1-4.74-4.45c0-3.74,3.33-5.79,9.31-5.76v-.32c0-1.28-.35-3.58-3.52-3.58a7.72,7.72,0,0,0-4,1.15l-.64-1.86a9.61,9.61,0,0,1,5.09-1.38c4.74,0,5.89,3.23,5.89,6.34v5.79a21.87,21.87,0,0,0,.26,3.71Zm-.42-7.9c-3.07-.06-6.56.48-6.56,3.49a2.49,2.49,0,0,0,2.66,2.69,3.85,3.85,0,0,0,3.74-2.59,2.92,2.92,0,0,0,.16-.9Z" transform="translate(0.02 0.12)"/><path d="M388,205.22c0-1.6,0-2.91-.13-4.19h2.5l.16,2.56h.06a5.69,5.69,0,0,1,5.12-2.91c2.14,0,5.47,1.28,5.47,6.59v9.25h-2.82v-8.93c0-2.5-.93-4.58-3.58-4.58A4,4,0,0,0,391,205.9a4,4,0,0,0-.19,1.31v9.31H388Z" transform="translate(0.02 0.12)"/><path d="M419.14,193.8v18.72c0,1.38,0,2.94.13,4h-2.53l-.13-2.69h-.06a5.73,5.73,0,0,1-5.28,3c-3.74,0-6.62-3.17-6.62-7.87,0-5.15,3.17-8.32,6.94-8.32a5.18,5.18,0,0,1,4.67,2.37h.06V193.8Zm-2.82,13.54a4.93,4.93,0,0,0-.13-1.18,4.14,4.14,0,0,0-4.06-3.26c-2.91,0-4.64,2.56-4.64,6,0,3.14,1.54,5.73,4.58,5.73a4.23,4.23,0,0,0,4.13-3.36,4.86,4.86,0,0,0,.13-1.22Z" transform="translate(0.02 0.12)"/><path d="M424.84,201l3.39,9.15c.35,1,.74,2.24,1,3.17h.06c.29-.93.61-2.11,1-3.23l3.07-9.09h3l-4.22,11c-2,5.31-3.39,8-5.31,9.7a7.63,7.63,0,0,1-3.46,1.82l-.7-2.37a7.48,7.48,0,0,0,2.46-1.38,8.54,8.54,0,0,0,2.37-3.14,2,2,0,0,0,.22-.67,2.46,2.46,0,0,0-.19-.74L421.77,201Z" transform="translate(0.02 0.12)"/><path d="M445.76,195.24a27,27,0,0,1,5.09-.45c2.78,0,4.58.48,5.92,1.57a4.52,4.52,0,0,1,1.79,3.81,5.12,5.12,0,0,1-3.65,4.74V205a5.56,5.56,0,0,1,4.45,5.41,5.81,5.81,0,0,1-1.82,4.32c-1.5,1.38-3.94,2-7.46,2a32.36,32.36,0,0,1-4.32-.26Zm2.78,8.83h2.53c2.94,0,4.67-1.54,4.67-3.62,0-2.53-1.92-3.52-4.74-3.52a12,12,0,0,0-2.46.19Zm0,10.33a14.77,14.77,0,0,0,2.34.13c2.88,0,5.54-1.06,5.54-4.19,0-2.94-2.53-4.16-5.57-4.16h-2.3Z" transform="translate(0.02 0.12)"/><path d="M471.59,216.52l-.22-2h-.1a5.77,5.77,0,0,1-4.74,2.3,4.41,4.41,0,0,1-4.74-4.45c0-3.74,3.33-5.79,9.31-5.76v-.32c0-1.28-.35-3.58-3.52-3.58a7.72,7.72,0,0,0-4,1.15l-.64-1.86a9.61,9.61,0,0,1,5.09-1.38c4.74,0,5.89,3.23,5.89,6.34v5.79a21.87,21.87,0,0,0,.26,3.71Zm-.42-7.9c-3.07-.06-6.56.48-6.56,3.49a2.49,2.49,0,0,0,2.66,2.69A3.85,3.85,0,0,0,471,212.2a2.92,2.92,0,0,0,.16-.9Z" transform="translate(0.02 0.12)"/><path d="M479.2,201l3.39,9.15c.35,1,.74,2.24,1,3.17h.06c.29-.93.61-2.11,1-3.23l3.07-9.09h3l-4.22,11c-2,5.31-3.39,8-5.31,9.7a7.63,7.63,0,0,1-3.46,1.82l-.7-2.37a7.48,7.48,0,0,0,2.46-1.38,8.54,8.54,0,0,0,2.37-3.14,2,2,0,0,0,.22-.67,2.46,2.46,0,0,0-.19-.74L476.13,201Z" transform="translate(0.02 0.12)"/></svg>