<svg id="Layer_1" data-name="Layer 1" xmlns="http://www.w3.org/2000/svg" width="708.66" height="341.94" viewBox="0 0 708.66 341.94"><defs><style>.cls-1{fill:#ef3b24;}</style></defs><title>Challenge Nav Logo</title><path class="cls-1" d="M212.57,212.7a3.28,3.28,0,0,0-3.18,2.25q-1,2.24-1,9.2,0,6.44.83,8.94a3.41,3.41,0,0,0,6.57,0q.86-2.49.87-9,0-6.71-.91-9.08A3.25,3.25,0,0,0,212.57,212.7Z"/><path class="cls-1" d="M162.41,190.68a3.73,3.73,0,0,0,3.56-2.37q1.13-2.37,1.13-9.61t-1.1-9.57a3.84,3.84,0,0,0-7.11,0q-1.12,2.4-1.12,9.56t1.11,9.5A3.7,3.7,0,0,0,162.41,190.68Z"/><path class="cls-1" d="M121.89,219.12q0-6.77-4.57-6.77t-4.53,7.74h9.06C121.88,219.68,121.89,219.35,121.89,219.12Z"/><path class="cls-1" d="M251.31,166.07A2.9,2.9,0,0,0,248.5,168q-.85,1.93-.85,10.72t.82,10.66a3,3,0,0,0,5.62.12q.85-1.86.85-10.78,0-8.08-.73-10.36A2.87,2.87,0,0,0,251.31,166.07Z"/><path class="cls-1" d="M268.11,225.4l-3.57,4.9v11.35h-9.79V206.59h9.79v13.52l9.85-13.53h8.9l-8.86,11.77,3.25,7.79a127.34,127.34,0,0,0,10.49-32.78q-2.82,3.66-8.48,3.67-6.54,0-9.21-4.73t-2.67-13.14q0-9.69,2.77-14.23t9.1-4.54q6.54,0,9.21,4.73a16.45,16.45,0,0,1,1.18,2.65,128.84,128.84,0,0,0-2.28-21.15H276.56v1.23q0,3,.81,4a2.61,2.61,0,0,0,2.14,1q2.83,0,3.19-3.8l5.54.35q-1.48,7.78-8.84,7.77a8.17,8.17,0,0,1-6.9-3.07,13.12,13.12,0,0,1-2.36-8.21q0-5.8,2.5-8.86a8.82,8.82,0,0,1,12.77-.62A128.28,128.28,0,1,0,272,236.81Zm-18.58-98.79h6.22v10.2a5.88,5.88,0,0,1,5.47-2.83,5.52,5.52,0,0,1,3.58,1,4.58,4.58,0,0,1,1.67,2.68,23.52,23.52,0,0,1,.36,4.71v14.3H260.6V142.41a6.78,6.78,0,0,0-.41-2.91,1.78,1.78,0,0,0-1.69-.72,2.87,2.87,0,0,0-2,.69q-.75.69-.75,3.12v14.14h-6.22Zm-15.41,7.83h2.47V127.6l6-.19v7h4.1v4.9h-4.1v8.19a26.64,26.64,0,0,0,.1,2.95,1.75,1.75,0,0,0,.66,1.13,3,3,0,0,0,1.89.45H247v4.73a17.48,17.48,0,0,1-3.8.46,7.34,7.34,0,0,1-4.33-1.08,4.76,4.76,0,0,1-1.92-2.71,23,23,0,0,1-.42-5.19v-8.88h-2.47Zm-17.61,56.25h6v-21a22.23,22.23,0,0,1-6,4.45v-7a23.18,23.18,0,0,0,7.84-6.56h6v30.05h5.89v5.81H216.51Zm-36-29.74h8.67L198.3,183V160.94h6v35.55h-7l-10.83-25.73v25.73h-6Zm-18.07-.55q6.3,0,9.61,4.58t3.31,13.73q0,18.33-12.89,18.33-6.41,0-9.66-4.67t-3.26-13.66q0-18.31,12.86-18.31Zm-26.15.55h7.81V196.5h-7.81Zm-41.17,0h7.81V196.5H95.09Zm-21.05,0L79.51,188l5.65-27.1h6.7l-8.72,35.73-8.75-.18-8.54-35.55Zm23.37,80.71H87.62v-23q0-3.54-.91-4.37a3.44,3.44,0,0,0-2.43-.83q-2.64,0-3.47,1.62t-.83,6v20.56h-9.8v-35h9.27v4.79q2.43-5.49,8.79-5.49a9.77,9.77,0,0,1,5.68,1.55,6.79,6.79,0,0,1,2.86,3.94,31.16,31.16,0,0,1,.63,7.29ZM114,234a4.09,4.09,0,0,0,3.35,1.59q4.47,0,5-6l8.72.55q-2.32,12.22-13.91,12.22-7.15,0-10.86-4.83t-3.71-12.92q0-9.13,3.94-13.94a12.94,12.94,0,0,1,10.56-4.81,13.13,13.13,0,0,1,10,4.25q4,4.26,4,15.61H112.72v1.94Q112.72,232.4,114,234Zm14-40.14q-3.4,3.14-9.16,3.14-9.66,0-12.34-9.77l6.82-2q1.25,5.37,5.7,5.36a5,5,0,0,0,3.29-1.05,3.44,3.44,0,0,0,1.26-2.77,3.49,3.49,0,0,0-.88-2.33,10.49,10.49,0,0,0-4.06-2.17,37.19,37.19,0,0,1-6.09-2.64,9.4,9.4,0,0,1-3.31-3.38,9.66,9.66,0,0,1-1.3-5,10.59,10.59,0,0,1,3.09-7.85,11.08,11.08,0,0,1,8.16-3.06q9.27,0,11.57,8.28l-6.46,2.47q-1.38-4.4-5.05-4.4a3.74,3.74,0,0,0-2.72,1,3.08,3.08,0,0,0-1,2.28,2.86,2.86,0,0,0,1.19,2.41,23.54,23.54,0,0,0,5,2.36,29.35,29.35,0,0,1,5.4,2.53,9.43,9.43,0,0,1,3.18,3.4,10,10,0,0,1,1.21,5,10.66,10.66,0,0,1-3.5,8.17Zm25.67,47.81a27.58,27.58,0,0,1-6,.73q-4.44,0-6.8-1.7a7.45,7.45,0,0,1-3-4.27,36,36,0,0,1-.66-8.16v-14h-3.89v-7.71h3.89v-5.36h9.51v5.37h6.46v7.71h-6.46v12.88a41.25,41.25,0,0,0,.16,4.64,2.72,2.72,0,0,0,1,1.77,4.8,4.8,0,0,0,3,.71c.74,0,1.67,0,2.78-.07Zm35.47,0H181l-4.51-23.86L172,241.66h-8l-8.82-35.07h9.52l4.12,21.35,3.93-21.35h9.51l3.19,21.33,4.73-21.33h7.66Zm23.42.73q-14.25,0-14.25-18.26t14.25-18.23q14.22,0,14.22,18.23t-14.21,18.24Zm38.53-26.53a14,14,0,0,0-1.63-.14q-7.15,0-7.15,10.83v15.11h-9.79V206.59h8.61v8.47q2.33-8.92,8.3-8.92a9.33,9.33,0,0,1,1.67.17Zm.19-18.82q-6.54,0-9.21-4.73t-2.67-13.14q0-9.69,2.77-14.23t9.1-4.54q6.54,0,9.21,4.73t2.67,13.16q0,9.64-2.77,14.19T251.29,197Z"/><path class="cls-1" d="M276.6,143h5.76v-.62q0-4.31-2.9-4.3T276.6,143Z"/><path class="cls-1" d="M279.71,166.07A2.9,2.9,0,0,0,276.9,168q-.85,1.93-.85,10.72t.82,10.66a3,3,0,0,0,5.62.12q.85-1.86.85-10.78,0-8.08-.73-10.36A2.87,2.87,0,0,0,279.71,166.07Z"/><path d="M344.5,72h-.08L340,74.41l-.66-2.61,5.54-3h2.92V94.19H344.5Z"/><path d="M367.66,94.19v-6.9H355.89V85L367.2,68.83h3.71V84.59h3.55v2.69H370.9v6.9Zm0-9.59V76.13q0-2,.12-4h-.12c-.78,1.48-1.4,2.57-2.11,3.74l-6.2,8.62v.08Z"/><path d="M386.11,82.37V84.9h-9.63V82.37Z"/><path d="M396.48,72h-.08L392,74.41l-.66-2.61,5.54-3h2.92V94.19h-3.32Z"/><path d="M424.17,71.72H414.5l-1,6.51a13.54,13.54,0,0,1,2.07-.16,10.71,10.71,0,0,1,5.46,1.36A7.23,7.23,0,0,1,424.68,86c0,5-3.94,8.66-9.44,8.66a12.41,12.41,0,0,1-6.32-1.56l.86-2.61a11.35,11.35,0,0,0,5.42,1.4c3.24,0,6-2.11,6-5.5s-2.22-5.62-7.29-5.62a26.29,26.29,0,0,0-3.51.27L412,68.83h12.13Z"/><path d="M442.78,85.92,440,94.19h-3.51l8.93-26.29h4.1l9,26.29h-3.63l-2.81-8.27Zm8.62-2.65-2.57-7.57c-.58-1.72-1-3.28-1.37-4.8h-.08c-.39,1.56-.82,3.16-1.33,4.76l-2.57,7.61Z"/><path d="M477.6,89c0,2,0,3.67.16,5.15h-3l-.2-3.08h-.08a7.1,7.1,0,0,1-6.24,3.51c-3,0-6.51-1.64-6.51-8.27v-11h3.43V85.76c0,3.59,1.09,6,4.21,6a5,5,0,0,0,4.52-3.12,5,5,0,0,0,.31-1.76V75.31h3.43Z"/><path d="M499.56,75.31c-.08,1.37-.16,2.89-.16,5.19v11c0,4.33-.86,7-2.69,8.62a10,10,0,0,1-6.86,2.26,12.18,12.18,0,0,1-6.28-1.56l.86-2.61A10.64,10.64,0,0,0,490,99.65c3.51,0,6.08-1.83,6.08-6.59V90.95H496a6.74,6.74,0,0,1-6,3.16c-4.68,0-8-4-8-9.2,0-6.4,4.17-10,8.5-10a6.28,6.28,0,0,1,5.89,3.28h.08l.16-2.85ZM496,82.76a4.88,4.88,0,0,0-.2-1.56,4.94,4.94,0,0,0-4.8-3.63c-3.28,0-5.62,2.77-5.62,7.14,0,3.71,1.87,6.79,5.58,6.79A5,5,0,0,0,495.74,88a6,6,0,0,0,.27-1.83Z"/><path d="M520.89,89c0,2,0,3.67.16,5.15h-3l-.2-3.08h-.08a7.1,7.1,0,0,1-6.24,3.51c-3,0-6.51-1.64-6.51-8.27v-11h3.43V85.76c0,3.59,1.09,6,4.21,6a5,5,0,0,0,4.52-3.12,5,5,0,0,0,.31-1.76V75.31h3.43Z"/><path d="M526.12,90.68A9,9,0,0,0,530.64,92c2.5,0,3.67-1.25,3.67-2.81s-1-2.54-3.51-3.47c-3.39-1.21-5-3.08-5-5.34,0-3,2.46-5.54,6.51-5.54A9.42,9.42,0,0,1,537,76l-.86,2.5a7.35,7.35,0,0,0-3.86-1.09c-2,0-3.16,1.17-3.16,2.57,0,1.56,1.13,2.26,3.59,3.2,3.28,1.25,5,2.89,5,5.69,0,3.31-2.57,5.66-7.06,5.66a10.76,10.76,0,0,1-5.3-1.29Z"/><path d="M546.17,69.89v5.42h4.91v2.61h-4.91V88.1c0,2.34.66,3.67,2.57,3.67a7.62,7.62,0,0,0,2-.23l.16,2.57a8.4,8.4,0,0,1-3,.47,4.76,4.76,0,0,1-3.71-1.44c-1-1-1.33-2.69-1.33-4.91V77.92h-2.92V75.31h2.92V70.78Z"/><path d="M562.12,94.19V92.08l2.69-2.61c6.47-6.16,9.4-9.44,9.44-13.26,0-2.57-1.25-5-5-5a8.64,8.64,0,0,0-5.38,2.15L562.74,71a11.12,11.12,0,0,1,7.18-2.57c5.46,0,7.76,3.74,7.76,7.37,0,4.68-3.39,8.46-8.74,13.61l-2,1.87v.08H578.3v2.85Z"/><path d="M599,81.24c0,8.62-3.2,13.38-8.81,13.38-5,0-8.31-4.64-8.38-13s3.67-13.18,8.81-13.18C595.93,68.41,599,73.16,599,81.24Zm-13.77.39c0,6.59,2,10.34,5.15,10.34,3.51,0,5.19-4.1,5.19-10.57,0-6.24-1.6-10.34-5.15-10.34C587.39,71.06,585.2,74.72,585.2,81.63Z"/><path d="M602.13,94.19V92.08l2.69-2.61c6.47-6.16,9.4-9.44,9.44-13.26,0-2.57-1.25-5-5-5a8.64,8.64,0,0,0-5.38,2.15L602.75,71a11.12,11.12,0,0,1,7.18-2.57c5.46,0,7.76,3.74,7.76,7.37,0,4.68-3.39,8.46-8.74,13.61l-2,1.87v.08h11.39v2.85Z"/><path d="M639,81.24c0,8.62-3.2,13.38-8.81,13.38-5,0-8.31-4.64-8.38-13s3.67-13.18,8.81-13.18C635.94,68.41,639,73.16,639,81.24Zm-13.77.39c0,6.59,2,10.34,5.15,10.34,3.51,0,5.19-4.1,5.19-10.57,0-6.24-1.6-10.34-5.15-10.34C627.4,71.06,625.22,74.72,625.22,81.63Z"/><path d="M346.47,164.39h-8V161.5h19.46v2.89h-8v23.4h-3.43Z"/><path d="M360.47,160.1h3.43v11.78H364a6.37,6.37,0,0,1,2.46-2.42,7.06,7.06,0,0,1,3.51-1c2.54,0,6.59,1.56,6.59,8.07v11.23H373.1V176.94c0-3-1.13-5.62-4.37-5.62a4.93,4.93,0,0,0-4.6,3.43,4.15,4.15,0,0,0-.23,1.64v11.39h-3.43Z"/><path d="M384,179c.08,4.64,3,6.55,6.47,6.55a12.41,12.41,0,0,0,5.23-1l.58,2.46a15.29,15.29,0,0,1-6.28,1.17c-5.81,0-9.28-3.82-9.28-9.52s3.35-10.18,8.85-10.18c6.16,0,7.8,5.42,7.8,8.89a12.91,12.91,0,0,1-.12,1.6Zm10.06-2.46c0-2.18-.9-5.58-4.76-5.58-3.47,0-5,3.2-5.27,5.58Z"/><path d="M432.5,174.37c0,9-5.5,13.85-12.21,13.85-6.94,0-11.82-5.38-11.82-13.34,0-8.35,5.19-13.81,12.21-13.81C427.86,161.07,432.5,166.57,432.5,174.37Zm-20.4.43c0,5.62,3,10.65,8.39,10.65s8.42-5,8.42-10.92c0-5.23-2.73-10.69-8.39-10.69S412.1,169,412.1,174.8Z"/><path d="M436.79,160.1h3.43v27.69h-3.43Z"/><path d="M462.3,160.1v22.82c0,1.68,0,3.59.16,4.88h-3.08l-.16-3.28h-.08a7,7,0,0,1-6.43,3.71c-4.56,0-8.07-3.86-8.07-9.59,0-6.28,3.86-10.14,8.46-10.14a6.31,6.31,0,0,1,5.69,2.89h.08V160.1Zm-3.43,16.5a6.06,6.06,0,0,0-.16-1.44,5,5,0,0,0-5-4c-3.55,0-5.66,3.12-5.66,7.29,0,3.82,1.87,7,5.58,7a5.16,5.16,0,0,0,5-4.1,6,6,0,0,0,.16-1.48Z"/><path d="M479.26,187.79l-6.67-26.29h3.59l3.12,13.3c.78,3.28,1.48,6.55,2,9.09h.08c.43-2.61,1.25-5.73,2.15-9.13L487,161.5h3.55l3.2,13.34c.74,3.12,1.44,6.24,1.83,9h.08c.55-2.89,1.29-5.81,2.11-9.09l3.47-13.26h3.47l-7.45,26.29h-3.55l-3.31-13.69a79.24,79.24,0,0,1-1.72-8.58h-.08a82.17,82.17,0,0,1-2,8.58l-3.74,13.69Z"/><path d="M523.64,178.19c0,7-4.84,10-9.4,10-5.11,0-9-3.74-9-9.71,0-6.32,4.13-10,9.36-10C520,168.48,523.64,172.42,523.64,178.19Zm-15,.2c0,4.13,2.38,7.25,5.73,7.25s5.73-3.08,5.73-7.33c0-3.2-1.6-7.25-5.66-7.25S508.67,174.8,508.67,178.39Z"/><path d="M545.05,178.19c0,7-4.84,10-9.4,10-5.11,0-9-3.74-9-9.71,0-6.32,4.13-10,9.36-10C541.39,168.48,545.05,172.42,545.05,178.19Zm-15,.2c0,4.13,2.38,7.25,5.73,7.25s5.73-3.08,5.73-7.33c0-3.2-1.6-7.25-5.66-7.25S530.08,174.8,530.08,178.39Z"/><path d="M549.38,160.1h3.43v27.69h-3.43Z"/><path d="M558.12,184.28a9,9,0,0,0,4.52,1.36c2.5,0,3.67-1.25,3.67-2.81s-1-2.54-3.51-3.47c-3.39-1.21-5-3.08-5-5.34,0-3,2.46-5.54,6.51-5.54a9.43,9.43,0,0,1,4.64,1.17l-.86,2.5a7.35,7.35,0,0,0-3.86-1.09c-2,0-3.16,1.17-3.16,2.57,0,1.56,1.13,2.26,3.59,3.2,3.28,1.25,5,2.89,5,5.69,0,3.32-2.57,5.66-7.06,5.66a10.76,10.76,0,0,1-5.3-1.29Z"/><path d="M578.17,163.49v5.42h4.91v2.61h-4.91V181.7c0,2.34.66,3.67,2.57,3.67a7.63,7.63,0,0,0,2-.23l.16,2.57a8.39,8.39,0,0,1-3,.47,4.76,4.76,0,0,1-3.71-1.44c-1-1-1.33-2.69-1.33-4.91v-10.3h-2.92v-2.61h2.92v-4.52Z"/><path d="M603.79,178.19c0,7-4.84,10-9.4,10-5.11,0-9-3.74-9-9.71,0-6.32,4.13-10,9.36-10C600.12,168.48,603.79,172.42,603.79,178.19Zm-15,.2c0,4.13,2.38,7.25,5.73,7.25s5.73-3.08,5.73-7.33c0-3.2-1.6-7.25-5.66-7.25S588.81,174.8,588.81,178.39Z"/><path d="M608.12,174.8c0-2.22,0-4.13-.16-5.89h3l.12,3.71h.16a5.66,5.66,0,0,1,5.23-4.13,3.7,3.7,0,0,1,1,.12v3.24a5.14,5.14,0,0,0-1.17-.12c-2.42,0-4.13,1.83-4.6,4.41a9.64,9.64,0,0,0-.16,1.6v10.06h-3.39Z"/><path d="M622.39,179c.08,4.64,3,6.55,6.47,6.55a12.41,12.41,0,0,0,5.23-1l.58,2.46a15.29,15.29,0,0,1-6.28,1.17c-5.81,0-9.28-3.82-9.28-9.52s3.35-10.18,8.85-10.18c6.16,0,7.8,5.42,7.8,8.89a12.91,12.91,0,0,1-.12,1.6Zm10.06-2.46c0-2.18-.9-5.58-4.76-5.58-3.47,0-5,3.2-5.27,5.58Z"/><path d="M437,255.1v11H449.7v-11h3.43v26.29H449.7V269.06H437v12.32h-3.39V255.1Z"/><path d="M476,271.79c0,7-4.84,10-9.4,10-5.11,0-9-3.74-9-9.71,0-6.32,4.13-10,9.36-10C472.32,262.08,476,266,476,271.79Zm-15,.2c0,4.13,2.38,7.25,5.73,7.25s5.73-3.08,5.73-7.33c0-3.2-1.6-7.25-5.66-7.25S461,268.4,461,272Z"/><path d="M480.16,281.39c.08-1.29.16-3.2.16-4.87V253.69h3.39v11.86h.08a7,7,0,0,1,6.44-3.47c4.68,0,8,3.9,8,9.63,0,6.75-4.25,10.1-8.46,10.1a6.73,6.73,0,0,1-6.32-3.55h-.12l-.16,3.12Zm3.55-7.57a6.42,6.42,0,0,0,.16,1.25,5.3,5.3,0,0,0,5.15,4c3.59,0,5.73-2.93,5.73-7.25,0-3.78-2-7-5.62-7A5.47,5.47,0,0,0,483.9,269a6.74,6.74,0,0,0-.2,1.4Z"/><path d="M513,281.39l-.27-2.38h-.12a7,7,0,0,1-5.77,2.81,5.38,5.38,0,0,1-5.77-5.42c0-4.56,4.06-7.06,11.35-7V269c0-1.56-.43-4.37-4.29-4.37a9.4,9.4,0,0,0-4.92,1.4l-.78-2.26a11.72,11.72,0,0,1,6.2-1.68c5.77,0,7.18,3.94,7.18,7.72v7.06a26.54,26.54,0,0,0,.31,4.52Zm-.51-9.63c-3.74-.08-8,.59-8,4.25a3,3,0,0,0,3.24,3.28,4.7,4.7,0,0,0,4.56-3.16,3.57,3.57,0,0,0,.19-1.09Z"/><path d="M521.3,268.4c0-2.22,0-4.13-.16-5.89h3l.12,3.71h.16a5.66,5.66,0,0,1,5.23-4.13,3.7,3.7,0,0,1,1,.12v3.24a5.14,5.14,0,0,0-1.17-.12c-2.42,0-4.13,1.83-4.6,4.41a9.64,9.64,0,0,0-.16,1.6v10.06H521.3Z"/><path d="M539.13,257.09v5.42H544v2.61h-4.91V275.3c0,2.34.66,3.67,2.57,3.67a7.62,7.62,0,0,0,2-.23l.16,2.57a8.39,8.39,0,0,1-3,.47,4.76,4.76,0,0,1-3.71-1.44c-1-1-1.33-2.69-1.33-4.91v-10.3h-2.92v-2.61h2.92V258Z"/></svg>