<svg id="Layer_1" data-name="Layer 1" xmlns="http://www.w3.org/2000/svg" width="250mm" height="120.63mm" viewBox="0 0 708.66 341.93"><defs><style>.cls-1{fill:#ef3b24;}.cls-2{fill:#231f20;}</style></defs><title>Artboard 8</title><path class="cls-1" d="M212.57,212.69a3.28,3.28,0,0,0-3.18,2.25q-1,2.24-1,9.2,0,6.44.83,8.94a3.41,3.41,0,0,0,6.57,0q.86-2.49.87-9,0-6.71-.91-9.08A3.25,3.25,0,0,0,212.57,212.69Z"/><path class="cls-1" d="M162.41,190.67a3.73,3.73,0,0,0,3.56-2.37q1.13-2.37,1.13-9.61T166,169.12a3.84,3.84,0,0,0-7.11,0q-1.12,2.4-1.12,9.56t1.11,9.5A3.7,3.7,0,0,0,162.41,190.67Z"/><path class="cls-1" d="M121.89,219.11q0-6.77-4.57-6.77t-4.53,7.74h9.06C121.88,219.67,121.89,219.34,121.89,219.11Z"/><path class="cls-1" d="M251.31,166.06A2.9,2.9,0,0,0,248.5,168q-.85,1.93-.85,10.72t.82,10.66a3,3,0,0,0,5.62.12q.85-1.86.85-10.78,0-8.08-.73-10.36A2.87,2.87,0,0,0,251.31,166.06Z"/><path class="cls-1" d="M268.11,225.39l-3.57,4.9v11.35h-9.79V206.58h9.79V220.1l9.85-13.53h8.9l-8.86,11.77,3.25,7.79a127.34,127.34,0,0,0,10.49-32.78q-2.82,3.66-8.48,3.67-6.54,0-9.21-4.73t-2.67-13.14q0-9.69,2.77-14.23t9.1-4.54q6.54,0,9.21,4.73a16.45,16.45,0,0,1,1.18,2.65,128.84,128.84,0,0,0-2.28-21.15H276.56v1.23q0,3,.81,4a2.61,2.61,0,0,0,2.14,1q2.83,0,3.19-3.8l5.54.35q-1.48,7.78-8.84,7.77a8.17,8.17,0,0,1-6.9-3.07,13.12,13.12,0,0,1-2.36-8.21q0-5.8,2.5-8.86a8.24,8.24,0,0,1,6.71-3.06,8.32,8.32,0,0,1,6.06,2.44A128.28,128.28,0,1,0,271.95,236.8ZM249.53,126.6h6.22v10.2a5.88,5.88,0,0,1,5.47-2.83A5.52,5.52,0,0,1,264.8,135a4.58,4.58,0,0,1,1.67,2.68,23.52,23.52,0,0,1,.36,4.71v14.3H260.6V142.4a6.78,6.78,0,0,0-.41-2.91,1.78,1.78,0,0,0-1.69-.72,2.87,2.87,0,0,0-2,.69q-.75.69-.75,3.12v14.14h-6.22Zm-15.41,7.83h2.47v-6.84l6-.19v7h4.1v4.9h-4.1v8.19a26.64,26.64,0,0,0,.1,2.95,1.75,1.75,0,0,0,.66,1.13,3,3,0,0,0,1.89.45c.47,0,1.06,0,1.77,0v4.73a17.48,17.48,0,0,1-3.8.46,7.34,7.34,0,0,1-4.33-1.08,4.76,4.76,0,0,1-1.92-2.71,23,23,0,0,1-.42-5.19v-8.88h-2.47Zm-17.61,56.25h6v-21a22.23,22.23,0,0,1-6,4.45v-7a23.18,23.18,0,0,0,7.84-6.56h6v30.05h5.89v5.81H216.51Zm-36-29.74h8.67L198.3,183V160.93h6v35.55h-7l-10.83-25.73v25.73h-6Zm-18.07-.55q6.3,0,9.61,4.58t3.31,13.73q0,18.33-12.89,18.33-6.41,0-9.66-4.67t-3.26-13.66Q149.52,160.39,162.41,160.39Zm-26.15.55h7.81v35.55h-7.81Zm-41.17,0h7.81v35.55H95.09Zm-21.05,0L79.51,188l5.65-27.1h6.7l-8.72,35.73-8.75-.18-8.54-35.55Zm23.37,80.71H87.62v-23q0-3.54-.91-4.37a3.44,3.44,0,0,0-2.43-.83q-2.64,0-3.47,1.62t-.83,6v20.56H70.18V206.58h9.27v4.79q2.43-5.49,8.79-5.49a9.77,9.77,0,0,1,5.68,1.55,6.79,6.79,0,0,1,2.86,3.94,31.16,31.16,0,0,1,.63,7.29ZM114,234a4.09,4.09,0,0,0,3.35,1.59q4.47,0,5-6l8.72.55q-2.32,12.22-13.91,12.22-7.15,0-10.86-4.83t-3.71-12.92q0-9.13,3.94-13.94a12.94,12.94,0,0,1,10.56-4.81,13.13,13.13,0,0,1,10,4.25q4,4.26,4,15.61H112.72v1.94Q112.72,232.39,114,234Zm14-40.14Q124.6,197,118.84,197q-9.66,0-12.34-9.77l6.82-2q1.25,5.37,5.7,5.36a5,5,0,0,0,3.29-1.05,3.44,3.44,0,0,0,1.26-2.77,3.49,3.49,0,0,0-.88-2.33,10.49,10.49,0,0,0-4.06-2.17,37.19,37.19,0,0,1-6.09-2.64,9.4,9.4,0,0,1-3.31-3.38,9.66,9.66,0,0,1-1.3-5,10.59,10.59,0,0,1,3.09-7.85,11.08,11.08,0,0,1,8.16-3.06q9.27,0,11.57,8.28l-6.46,2.47q-1.38-4.4-5.05-4.4a3.74,3.74,0,0,0-2.72,1,3.08,3.08,0,0,0-1,2.28,2.86,2.86,0,0,0,1.19,2.41,23.54,23.54,0,0,0,5,2.36,29.35,29.35,0,0,1,5.4,2.53,9.43,9.43,0,0,1,3.18,3.4,10,10,0,0,1,1.21,5A10.66,10.66,0,0,1,128,193.84Zm25.67,47.81a27.58,27.58,0,0,1-6,.73q-4.44,0-6.8-1.7a7.45,7.45,0,0,1-3-4.27,36,36,0,0,1-.66-8.16v-14h-3.89v-7.71h3.89V201.2h9.51v5.37h6.46v7.71h-6.46v12.88a41.25,41.25,0,0,0,.16,4.64,2.72,2.72,0,0,0,1,1.77,4.8,4.8,0,0,0,3,.71c.74,0,1.67,0,2.78-.07Zm35.47,0H181l-4.51-23.86L172,241.65h-8l-8.82-35.07h9.52l4.12,21.35,3.93-21.35h9.51l3.19,21.33,4.73-21.33h7.66Zm23.42.73q-14.25,0-14.25-18.26t14.25-18.23q14.22,0,14.22,18.23T212.57,242.38Zm38.53-26.53a14,14,0,0,0-1.63-.14q-7.15,0-7.15,10.83v15.11h-9.79V206.58h8.61v8.47q2.33-8.92,8.3-8.92a9.33,9.33,0,0,1,1.67.17Zm.19-18.82q-6.54,0-9.21-4.73t-2.67-13.14q0-9.69,2.77-14.23t9.1-4.54q6.54,0,9.21,4.73t2.67,13.16q0,9.64-2.77,14.19T251.29,197Z"/><path class="cls-1" d="M276.6,143h5.76c0-.26,0-.47,0-.62q0-4.31-2.9-4.3T276.6,143Z"/><path class="cls-1" d="M279.71,166.06A2.9,2.9,0,0,0,276.9,168q-.85,1.93-.85,10.72t.82,10.66a3,3,0,0,0,5.62.12q.85-1.86.85-10.78,0-8.08-.73-10.36A2.87,2.87,0,0,0,279.71,166.06Z"/><path class="cls-2" d="M346.1,87.06H346l-4.29,2.32-.65-2.55,5.4-2.89h2.85v24.7H346.1Z"/><path class="cls-2" d="M372.43,86.3a12,12,0,0,0-2.51.15,10,10,0,0,0-8.59,8.78h.11a7.36,7.36,0,0,1,6-2.85c4.37,0,7.45,3.15,7.45,8,0,4.52-3.08,8.7-8.21,8.7-5.28,0-8.74-4.1-8.74-10.52a15.53,15.53,0,0,1,4.18-11.13,13.45,13.45,0,0,1,7.9-3.65,16.12,16.12,0,0,1,2.43-.19Zm-1,14.25c0-3.53-2-5.66-5.09-5.66a5.5,5.5,0,0,0-4.79,3,2.84,2.84,0,0,0-.38,1.48c.08,4.07,1.94,7.07,5.43,7.07C369.54,106.48,371.48,104.08,371.48,100.55Z"/><path class="cls-2" d="M386.64,97.13V99.6h-9.38V97.13Z"/><path class="cls-2" d="M396.75,87.06h-.08l-4.29,2.32-.65-2.55,5.4-2.89H400v24.7h-3.23Z"/><path class="cls-2" d="M425,83.95v2.2l-10.75,22.49h-3.46L421.53,86.8v-.08H409.44V83.95Z"/><path class="cls-2" d="M441.86,100.59l-2.66,8.05h-3.42L444.48,83h4l8.74,25.61h-3.53l-2.74-8.05Zm8.4-2.58-2.51-7.37c-.57-1.67-1-3.19-1.33-4.67h-.08c-.38,1.52-.8,3.08-1.29,4.64L442.54,98Z"/><path class="cls-2" d="M475.79,103.63c0,1.9,0,3.57.15,5h-3l-.19-3h-.08a6.92,6.92,0,0,1-6.08,3.42c-2.89,0-6.35-1.6-6.35-8.05V90.25h3.34v10.18c0,3.5,1.06,5.85,4.1,5.85a4.7,4.7,0,0,0,4.71-4.75V90.25h3.34Z"/><path class="cls-2" d="M497.18,90.25c-.08,1.33-.15,2.81-.15,5.05V106c0,4.22-.83,6.8-2.62,8.4a9.75,9.75,0,0,1-6.69,2.2,11.86,11.86,0,0,1-6.12-1.52l.83-2.55a10.36,10.36,0,0,0,5.4,1.44c3.42,0,5.93-1.79,5.93-6.42v-2.05h-.08a6.57,6.57,0,0,1-5.85,3.08c-4.56,0-7.83-3.87-7.83-9,0-6.23,4.07-9.76,8.28-9.76A6.12,6.12,0,0,1,494,93h.08l.15-2.77Zm-3.46,7.26a4.75,4.75,0,0,0-.19-1.52,4.82,4.82,0,0,0-4.67-3.53c-3.19,0-5.47,2.7-5.47,7,0,3.61,1.82,6.61,5.43,6.61a4.89,4.89,0,0,0,4.63-3.42,5.81,5.81,0,0,0,.27-1.79Z"/><path class="cls-2" d="M518,103.63c0,1.9,0,3.57.15,5h-3l-.19-3h-.08a6.92,6.92,0,0,1-6.08,3.42c-2.89,0-6.35-1.6-6.35-8.05V90.25h3.34v10.18c0,3.5,1.06,5.85,4.1,5.85a4.7,4.7,0,0,0,4.71-4.75V90.25H518Z"/><path class="cls-2" d="M523.06,105.22a8.76,8.76,0,0,0,4.41,1.33c2.43,0,3.57-1.22,3.57-2.74s-1-2.47-3.42-3.38c-3.31-1.18-4.86-3-4.86-5.21,0-3,2.39-5.4,6.34-5.4A9.17,9.17,0,0,1,533.62,91l-.84,2.43A7.15,7.15,0,0,0,529,92.34c-2,0-3.08,1.14-3.08,2.51,0,1.52,1.1,2.2,3.5,3.12,3.19,1.22,4.83,2.81,4.83,5.55,0,3.23-2.51,5.51-6.88,5.51a10.49,10.49,0,0,1-5.17-1.25Z"/><path class="cls-2" d="M542.59,85v5.28h4.79V92.8h-4.79v9.92c0,2.28.65,3.57,2.51,3.57a7.42,7.42,0,0,0,1.94-.23l.15,2.51a8.17,8.17,0,0,1-3,.46,4.64,4.64,0,0,1-3.61-1.41c-1-1-1.29-2.62-1.29-4.79v-10h-2.85V90.25h2.85V85.85Z"/><path class="cls-2" d="M558.13,108.64v-2.05l2.62-2.55c6.31-6,9.16-9.19,9.2-12.92,0-2.51-1.22-4.83-4.9-4.83a8.41,8.41,0,0,0-5.24,2.09L558.74,86a10.83,10.83,0,0,1,7-2.51c5.32,0,7.56,3.65,7.56,7.18,0,4.56-3.3,8.25-8.51,13.26l-2,1.82v.08H573.9v2.77Z"/><path class="cls-2" d="M594,96c0,8.4-3.12,13-8.59,13-4.83,0-8.09-4.52-8.17-12.69s3.57-12.84,8.59-12.84C591.08,83.53,594,88.17,594,96Zm-13.41.38c0,6.42,2,10.07,5,10.07,3.42,0,5.05-4,5.05-10.3,0-6.08-1.56-10.07-5-10.07C582.76,86.11,580.63,89.69,580.63,96.41Z"/><path class="cls-2" d="M604.38,87.06h-.08L600,89.38l-.65-2.55,5.4-2.89h2.85v24.7h-3.23Z"/><path class="cls-2" d="M618.55,106.29a13.91,13.91,0,0,0,2.7-.11,9.31,9.31,0,0,0,5.17-2.39,10.84,10.84,0,0,0,3.27-6.57h-.11a7.25,7.25,0,0,1-5.81,2.66c-4.45,0-7.29-3.34-7.29-7.56a8.47,8.47,0,0,1,8.43-8.78c5.05,0,8.17,4.1,8.17,10.41,0,5.43-1.82,9.23-4.25,11.59a12.36,12.36,0,0,1-7.18,3.31,15.59,15.59,0,0,1-3.08.19Zm1.22-14.21c0,3.08,1.86,5.24,4.75,5.24a5.53,5.53,0,0,0,4.86-2.58,2.2,2.2,0,0,0,.3-1.22c0-4.22-1.56-7.45-5.05-7.45C621.78,86.08,619.77,88.58,619.77,92.08Z"/><path class="cls-2" d="M348,172.25h-7.79v-2.81h19v2.81h-7.83V195H348Z"/><path class="cls-2" d="M361.66,168.07H365v11.47h.08a6.2,6.2,0,0,1,2.39-2.36,6.87,6.87,0,0,1,3.42-1c2.47,0,6.42,1.52,6.42,7.87V195H374V184.48c0-3-1.1-5.47-4.26-5.47a4.8,4.8,0,0,0-4.48,3.34A4.06,4.06,0,0,0,365,184V195h-3.34Z"/><path class="cls-2" d="M384.61,186.46c.08,4.52,3,6.38,6.31,6.38a12.1,12.1,0,0,0,5.09-.95l.57,2.39a14.89,14.89,0,0,1-6.12,1.14c-5.66,0-9-3.72-9-9.27s3.27-9.92,8.63-9.92c6,0,7.6,5.28,7.6,8.66a12.62,12.62,0,0,1-.11,1.56Zm9.8-2.39c0-2.13-.87-5.43-4.63-5.43-3.38,0-4.86,3.12-5.13,5.43Z"/><path class="cls-2" d="M431.84,182c0,8.82-5.36,13.49-11.89,13.49-6.76,0-11.51-5.24-11.51-13,0-8.13,5.05-13.45,11.89-13.45C427.32,169,431.84,174.38,431.84,182Zm-19.87.42c0,5.47,3,10.37,8.17,10.37s8.21-4.83,8.21-10.64c0-5.09-2.66-10.41-8.17-10.41S412,176.77,412,182.39Z"/><path class="cls-2" d="M436,168.07h3.34v27H436Z"/><path class="cls-2" d="M460.87,168.07V190.3c0,1.63,0,3.5.15,4.75h-3l-.15-3.19h-.08a6.8,6.8,0,0,1-6.27,3.61c-4.45,0-7.87-3.76-7.87-9.35,0-6.12,3.76-9.88,8.25-9.88a6.15,6.15,0,0,1,5.55,2.81h.08v-11Zm-3.34,16.07a5.94,5.94,0,0,0-.15-1.41,4.92,4.92,0,0,0-4.83-3.87c-3.46,0-5.51,3-5.51,7.1,0,3.72,1.82,6.8,5.43,6.8a5,5,0,0,0,4.9-4,5.83,5.83,0,0,0,.15-1.44Z"/><path class="cls-2" d="M477.4,195l-6.5-25.61h3.5l3,13c.76,3.19,1.44,6.38,1.9,8.85h.08c.42-2.54,1.22-5.58,2.09-8.89l3.42-12.92h3.46l3.12,13c.72,3,1.41,6.08,1.79,8.78h.08c.53-2.81,1.25-5.66,2.05-8.85l3.38-12.92h3.38L494.92,195h-3.46l-3.23-13.34a77.11,77.11,0,0,1-1.67-8.36h-.08a80,80,0,0,1-2,8.36L480.86,195Z"/><path class="cls-2" d="M520.65,185.7c0,6.8-4.71,9.76-9.16,9.76-5,0-8.82-3.65-8.82-9.46,0-6.16,4-9.76,9.12-9.76C517.08,176.24,520.65,180.08,520.65,185.7Zm-14.59.19c0,4,2.32,7.07,5.58,7.07s5.59-3,5.59-7.14c0-3.12-1.56-7.07-5.51-7.07S506.06,182.39,506.06,185.89Z"/><path class="cls-2" d="M541.51,185.7c0,6.8-4.71,9.76-9.16,9.76-5,0-8.82-3.65-8.82-9.46,0-6.16,4-9.76,9.12-9.76C537.94,176.24,541.51,180.08,541.51,185.7Zm-14.59.19c0,4,2.32,7.07,5.58,7.07s5.59-3,5.59-7.14c0-3.12-1.56-7.07-5.51-7.07S526.92,182.39,526.92,185.89Z"/><path class="cls-2" d="M545.73,168.07h3.34v27h-3.34Z"/><path class="cls-2" d="M554.24,191.63a8.76,8.76,0,0,0,4.41,1.33c2.43,0,3.57-1.22,3.57-2.74s-1-2.47-3.42-3.38c-3.31-1.18-4.86-3-4.86-5.21,0-3,2.39-5.4,6.34-5.4a9.17,9.17,0,0,1,4.52,1.14l-.84,2.43a7.15,7.15,0,0,0-3.76-1.06c-2,0-3.08,1.14-3.08,2.51,0,1.52,1.1,2.2,3.5,3.12,3.19,1.22,4.83,2.81,4.83,5.55,0,3.23-2.51,5.51-6.88,5.51a10.49,10.49,0,0,1-5.17-1.25Z"/><path class="cls-2" d="M573.77,171.37v5.28h4.79v2.55h-4.79v9.92c0,2.28.65,3.57,2.51,3.57a7.42,7.42,0,0,0,1.94-.23l.15,2.51a8.17,8.17,0,0,1-3,.46A4.64,4.64,0,0,1,571.8,194c-1-1-1.29-2.62-1.29-4.79v-10h-2.85v-2.55h2.85v-4.41Z"/><path class="cls-2" d="M598.74,185.7c0,6.8-4.71,9.76-9.16,9.76-5,0-8.82-3.65-8.82-9.46,0-6.16,4-9.76,9.12-9.76C595.17,176.24,598.74,180.08,598.74,185.7Zm-14.59.19c0,4,2.32,7.07,5.58,7.07s5.59-3,5.59-7.14c0-3.12-1.56-7.07-5.51-7.07S584.15,182.39,584.15,185.89Z"/><path class="cls-2" d="M603,182.39c0-2.17,0-4-.15-5.74h2.92l.11,3.61H606a5.52,5.52,0,0,1,5.09-4,3.61,3.61,0,0,1,1,.11v3.15a5.07,5.07,0,0,0-1.14-.11c-2.36,0-4,1.79-4.48,4.29a9.39,9.39,0,0,0-.15,1.56V195H603Z"/><path class="cls-2" d="M616.87,186.46c.08,4.52,3,6.38,6.31,6.38a12.1,12.1,0,0,0,5.09-.95l.57,2.39a14.89,14.89,0,0,1-6.12,1.14c-5.66,0-9-3.72-9-9.27s3.27-9.92,8.63-9.92c6,0,7.6,5.28,7.6,8.66a12.62,12.62,0,0,1-.11,1.56Zm9.8-2.39c0-2.13-.87-5.43-4.63-5.43-3.38,0-4.86,3.12-5.13,5.43Z"/><path class="cls-2" d="M436.21,255.84v10.71H448.6V255.84h3.34v25.61H448.6v-12H436.21v12h-3.31V255.84Z"/><path class="cls-2" d="M474.21,272.1c0,6.8-4.71,9.76-9.16,9.76-5,0-8.82-3.65-8.82-9.46,0-6.15,4-9.76,9.12-9.76C470.64,262.64,474.21,266.47,474.21,272.1Zm-14.59.19c0,4,2.32,7.07,5.58,7.07s5.59-3,5.59-7.14c0-3.12-1.56-7.07-5.51-7.07S459.62,268.79,459.62,272.29Z"/><path class="cls-2" d="M478.28,281.44c.08-1.25.15-3.12.15-4.75V254.47h3.31V266h.08a6.85,6.85,0,0,1,6.27-3.38c4.56,0,7.79,3.8,7.75,9.38,0,6.57-4.14,9.84-8.24,9.84a6.55,6.55,0,0,1-6.16-3.46h-.11l-.15,3Zm3.46-7.37a6.24,6.24,0,0,0,.15,1.22,5.16,5.16,0,0,0,5,3.91c3.5,0,5.58-2.85,5.58-7.07,0-3.69-1.9-6.84-5.47-6.84a5.33,5.33,0,0,0-5.09,4.1,6.57,6.57,0,0,0-.19,1.37Z"/><path class="cls-2" d="M510.24,281.44l-.27-2.32h-.11a6.85,6.85,0,0,1-5.62,2.74,5.24,5.24,0,0,1-5.62-5.28c0-4.45,4-6.88,11.06-6.84v-.38c0-1.52-.42-4.26-4.18-4.26a9.16,9.16,0,0,0-4.79,1.37l-.76-2.2a11.42,11.42,0,0,1,6-1.63c5.62,0,7,3.84,7,7.52V277a25.83,25.83,0,0,0,.3,4.41Zm-.49-9.38c-3.65-.08-7.79.57-7.79,4.14a3,3,0,0,0,3.15,3.19,4.58,4.58,0,0,0,4.45-3.08,3.51,3.51,0,0,0,.19-1.06Z"/><path class="cls-2" d="M518.37,268.79c0-2.17,0-4-.15-5.74h2.92l.11,3.61h.15a5.52,5.52,0,0,1,5.09-4,3.62,3.62,0,0,1,1,.11v3.15a5.07,5.07,0,0,0-1.14-.11c-2.36,0-4,1.79-4.48,4.29a9.39,9.39,0,0,0-.15,1.56v9.8h-3.31Z"/><path class="cls-2" d="M535.73,257.77v5.28h4.79v2.55h-4.79v9.92c0,2.28.65,3.57,2.51,3.57a7.42,7.42,0,0,0,1.94-.23l.15,2.51a8.17,8.17,0,0,1-3,.46,4.64,4.64,0,0,1-3.61-1.41c-1-1-1.29-2.62-1.29-4.79v-10h-2.85v-2.55h2.85v-4.41Z"/></svg>