<?xml version="1.0" encoding="utf-8"?>
<!-- Generator: Adobe Illustrator 21.1.0, SVG Export Plug-In . SVG Version: 6.00 Build 0)  -->
<svg version="1.1" id="Layer_1" xmlns="http://www.w3.org/2000/svg" xmlns:xlink="http://www.w3.org/1999/xlink" x="0px" y="0px"
	 viewBox="0 0 708.7 341.9" style="enable-background:new 0 0 708.7 341.9;" xml:space="preserve">
<style type="text/css">
	.st0{fill:#EF3B24;}
</style>
<title>Challenge Nav Logo</title>
<path class="st0" d="M405.1,212.5c-1.4,0-2.7,0.9-3.2,2.3c-0.7,1.5-1,4.6-1,9.2c0,4.3,0.3,7.3,0.8,8.9c0.5,1.8,2.4,2.9,4.2,2.4
	c1.2-0.3,2-1.2,2.4-2.4c0.6-1.7,0.9-4.7,0.9-9c0-4.5-0.3-7.5-0.9-9.1C407.8,213.4,406.5,212.5,405.1,212.5z"/>
<path class="st0" d="M354.9,190.5c1.6,0,3-0.9,3.6-2.4c0.8-1.6,1.1-4.8,1.1-9.6s-0.4-8-1.1-9.6c-0.8-2-3-2.9-5-2.1
	c-1,0.4-1.7,1.1-2.1,2.1c-0.7,1.6-1.1,4.8-1.1,9.6s0.4,7.9,1.1,9.5C351.9,189.5,353.3,190.5,354.9,190.5z"/>
<path class="st0" d="M314.4,218.9c0-4.5-1.5-6.8-4.6-6.8c-3,0-4.6,2.6-4.5,7.7h9.1C314.4,219.5,314.4,219.2,314.4,218.9z"/>
<path class="st0" d="M443.8,165.9c-1.3,0-2.4,0.7-2.8,1.9c-0.6,1.3-0.9,4.9-0.9,10.7c0,5.9,0.3,9.4,0.8,10.7
	c0.5,1.6,2.3,2.4,3.8,1.8c0.8-0.3,1.5-0.9,1.8-1.7c0.6-1.2,0.9-4.8,0.9-10.8c0-5.4-0.2-8.8-0.7-10.4
	C446.4,166.8,445.2,165.8,443.8,165.9z"/>
<path class="st0" d="M460.6,225.2l-3.6,4.9v11.4h-9.8v-35.1h9.8v13.5l9.9-13.5h8.9l-8.9,11.8l3.3,7.8c5-10.4,8.5-21.4,10.5-32.8
	c-1.9,2.4-4.7,3.7-8.5,3.7c-4.4,0-7.4-1.6-9.2-4.7c-1.8-3.2-2.7-7.5-2.7-13.1c0-6.5,0.9-11.2,2.8-14.2c1.8-3,4.9-4.5,9.1-4.5
	c4.4,0,7.4,1.6,9.2,4.7c0.5,0.8,0.9,1.7,1.2,2.6c-0.2-7.1-0.9-14.2-2.3-21.1h-11.2v1.2c0,2,0.3,3.3,0.8,4s1.3,1,2.1,1
	c1.9,0,2.9-1.3,3.2-3.8l5.5,0.4c-1,5.2-3.9,7.8-8.8,7.8c-2.7,0.2-5.2-1-6.9-3.1c-1.7-2.4-2.5-5.3-2.4-8.2c0-3.9,0.8-6.8,2.5-8.9
	c3.2-3.7,8.8-4.1,12.4-0.9c0.1,0.1,0.2,0.2,0.3,0.3c-19.1-68.2-89.9-108-158.1-88.9s-108,89.9-88.9,158.1s89.9,108,158.1,88.9
	c31.6-8.9,58.7-29.5,75.5-57.7L460.6,225.2z M442,126.4h6.2v10.2c1.1-1.9,3.3-3,5.5-2.8c1.3-0.1,2.5,0.3,3.6,1
	c0.9,0.7,1.4,1.6,1.7,2.7c0.3,1.6,0.4,3.1,0.4,4.7v14.3h-6.2v-14.3c0.1-1-0.1-2-0.4-2.9c-0.4-0.5-1-0.8-1.7-0.7
	c-0.7,0-1.4,0.2-2,0.7c-0.5,0.5-0.8,1.5-0.8,3.1v14.1h-6.2L442,126.4z M426.6,134.2h2.5v-6.8l6-0.2v7h4.1v4.9h-4.1v8.2
	c0,1,0,2,0.1,2.9c0.1,0.4,0.3,0.9,0.7,1.1c0.6,0.4,1.2,0.5,1.9,0.4h1.8v4.7c-1.2,0.3-2.5,0.4-3.8,0.5c-1.5,0.1-3-0.3-4.3-1.1
	c-0.9-0.6-1.6-1.6-1.9-2.7c-0.3-1.7-0.5-3.4-0.4-5.2v-8.9h-2.5L426.6,134.2z M409,190.5h6v-21c-1.7,1.8-3.8,3.3-6,4.4v-7
	c3.1-1.6,5.7-3.8,7.8-6.6h6v30.1h5.9v5.8H409V190.5z M373,160.7h8.7l9.1,22.1v-22.1h6v35.6h-7L379,170.6v25.7h-6V160.7z
	 M354.9,160.2c4.2,0,7.4,1.5,9.6,4.6s3.3,7.6,3.3,13.7c0,12.2-4.3,18.3-12.9,18.3c-4.3,0-7.5-1.6-9.7-4.7c-2.2-3.1-3.3-7.7-3.3-13.7
	C342,166.3,346.3,160.2,354.9,160.2L354.9,160.2z M328.8,160.7h7.8v35.6h-7.8V160.7z M287.6,160.7h7.8v35.6h-7.8V160.7z
	 M266.6,160.7l5.4,27.1l5.7-27.1h6.7l-8.7,35.7l-8.8-0.2l-8.5-35.6L266.6,160.7z M289.9,241.5h-9.8v-23c0-2.4-0.3-3.8-0.9-4.4
	c-0.7-0.6-1.5-0.9-2.4-0.8c-1.8,0-2.9,0.5-3.5,1.6c-0.6,1.1-0.8,3.1-0.8,6v20.6h-9.8v-35h9.3v4.8c1.6-3.7,4.6-5.5,8.8-5.5
	c2-0.1,4,0.5,5.7,1.6c1.4,0.9,2.4,2.3,2.9,3.9c0.5,2.4,0.7,4.8,0.6,7.3L289.9,241.5z M306.5,233.8c0.8,1,2,1.6,3.3,1.6
	c3,0,4.6-2,5-6l8.7,0.6c-1.5,8.1-6.2,12.2-13.9,12.2c-4.8,0-8.4-1.6-10.9-4.8s-3.7-7.5-3.7-12.9c0-6.1,1.3-10.7,3.9-13.9
	c2.6-3.2,6.5-5,10.6-4.8c3.8-0.1,7.4,1.5,10,4.3c2.7,2.8,4,8,4,15.6h-18.4v1.9C305.2,230.6,305.6,232.7,306.5,233.8z M320.5,193.7
	c-2.3,2.1-5.3,3.1-9.2,3.1c-6.4,0-10.6-3.3-12.3-9.8l6.8-2c0.8,3.6,2.7,5.4,5.7,5.4c1.2,0.1,2.4-0.3,3.3-1.1
	c0.8-0.7,1.3-1.7,1.3-2.8c0-0.9-0.3-1.7-0.9-2.3c-1.2-1-2.6-1.8-4.1-2.2c-2.1-0.7-4.1-1.6-6.1-2.6c-1.4-0.8-2.5-2-3.3-3.4
	c-0.9-1.5-1.3-3.2-1.3-5c-0.1-2.9,1-5.8,3.1-7.9c2.2-2.1,5.1-3.2,8.2-3.1c6.2,0,10,2.8,11.6,8.3l-6.5,2.5c-0.9-2.9-2.6-4.4-5.1-4.4
	c-1,0-2,0.3-2.7,1c-0.6,0.6-1,1.4-1,2.3c0,1,0.4,1.9,1.2,2.4c1.6,1,3.2,1.8,5,2.4c1.9,0.7,3.7,1.5,5.4,2.5c1.3,0.8,2.4,2,3.2,3.4
	c0.8,1.5,1.2,3.3,1.2,5C324.1,188.6,322.8,191.6,320.5,193.7L320.5,193.7z M346.2,241.5c-2,0.5-4,0.7-6,0.7c-3,0-5.2-0.6-6.8-1.7
	c-1.5-1-2.5-2.5-3-4.3c-0.5-2.7-0.8-5.4-0.7-8.2v-14h-3.9v-7.7h3.9v-5.4h9.5v5.4h6.5v7.7h-6.5v12.9c0,1.5,0,3.1,0.2,4.6
	c0.1,0.7,0.5,1.3,1,1.8c0.9,0.6,1.9,0.8,3,0.7c0.7,0,1.7,0,2.8-0.1V241.5z M381.6,241.5h-8.1l-4.5-23.9l-4.5,23.9h-8l-8.8-35.1h9.5
	l4.1,21.4l3.9-21.4h9.5l3.2,21.3l4.7-21.3h7.7L381.6,241.5z M405.1,242.2c-9.5,0-14.3-6.1-14.3-18.3s4.8-18.2,14.3-18.2
	s14.2,6.1,14.2,18.2C419.3,236.1,414.5,242.2,405.1,242.2L405.1,242.2z M443.6,215.7c-0.5-0.1-1.1-0.1-1.6-0.1
	c-4.8,0-7.1,3.6-7.1,10.8v15.1h-9.8v-35.1h8.6v8.5c1.6-5.9,4.3-8.9,8.3-8.9c0.6,0,1.1,0.1,1.7,0.2L443.6,215.7z M443.8,196.8
	c-4.4,0-7.4-1.6-9.2-4.7c-1.8-3.2-2.7-7.5-2.7-13.1c0-6.5,0.9-11.2,2.8-14.2c1.8-3,4.9-4.5,9.1-4.5c4.4,0,7.4,1.6,9.2,4.7
	c1.8,3.2,2.7,7.5,2.7,13.2c0,6.4-0.9,11.2-2.8,14.2C451,195.3,448,196.8,443.8,196.8L443.8,196.8z"/>
<path class="st0" d="M469.1,142.8h5.8v-0.6c0-2.9-1-4.3-2.9-4.3C470,137.9,469.1,139.5,469.1,142.8z"/>
<path class="st0" d="M472.2,165.9c-1.3,0-2.4,0.7-2.8,1.9c-0.6,1.3-0.9,4.9-0.9,10.7c0,5.9,0.3,9.4,0.8,10.7
	c0.5,1.6,2.3,2.4,3.8,1.8c0.8-0.3,1.5-0.9,1.8-1.7c0.6-1.2,0.9-4.8,0.9-10.8c0-5.4-0.2-8.8-0.7-10.4
	C474.8,166.8,473.6,165.8,472.2,165.9z"/>
</svg>
